<?xml version="1.0" encoding="UTF-8" standalone="no"?>
<!DOCTYPE svg PUBLIC "-//W3C//DTD SVG 20010904//EN"
              "http://www.w3.org/TR/2001/REC-SVG-20010904/DTD/svg10.dtd">

<svg xmlns="http://www.w3.org/2000/svg"
     width="16in" height="2.22222in"
     viewBox="0 0 1440 200">
  <path id="Sin nombre"
        fill="#F49220" stroke="#F49220" stroke-width="1"
        d="M -1.38,49.75
           C -1.38,49.75 72.88,51.12 72.88,51.12
             72.88,51.12 123.00,49.50 169.50,84.25
             169.75,84.00 205.00,107.50 205.00,107.50
             205.00,107.50 257.50,140.00 304.50,135.00
             304.50,135.25 362.75,136.00 416.75,121.50
             416.50,121.50 489.50,103.25 524.75,100.50
             524.25,100.75 594.50,88.25 652.00,116.50
             652.25,116.75 712.75,152.50 717.50,153.00
             717.00,153.50 768.25,185.50 834.75,150.75
             834.75,151.00 888.50,124.25 944.50,88.25
             944.50,88.50 1020.00,38.50 1063.50,32.75
             1063.75,32.75 1119.75,19.50 1169.00,32.25
             1168.75,31.75 1268.75,54.00 1275.00,54.00
             1274.50,54.25 1367.75,72.25 1424.50,30.00
             1424.75,30.25 1439.75,15.75 1439.75,15.75
             1439.75,15.75 1439.75,200.00 1439.75,200.00
             1439.75,200.00 -0.06,199.97 -0.06,199.97
             -0.06,199.97 0.00,49.53 0.00,49.53" />
</svg>
